<svg width="77" height="77" viewBox="0 0 77 77" fill="none" xmlns="http://www.w3.org/2000/svg">
<path d="M38.5001 10.9083C40.1834 10.9083 41.548 9.54373 41.548 7.86042C41.548 6.1771 40.1834 4.8125 38.5001 4.8125C36.8167 4.8125 35.4521 6.1771 35.4521 7.86042C35.4521 9.54373 36.8167 10.9083 38.5001 10.9083Z" stroke="#F0713D" stroke-width="4.775" stroke-miterlimit="10"/>
<path d="M29.3243 47.6759C31.0076 47.6759 32.3722 46.3113 32.3722 44.628C32.3722 42.9447 31.0076 41.5801 29.3243 41.5801C27.641 41.5801 26.2764 42.9447 26.2764 44.628C26.2764 46.3113 27.641 47.6759 29.3243 47.6759Z" stroke="#F0713D" stroke-width="4.775" stroke-miterlimit="10"/>
<path d="M47.6758 47.6759C49.3592 47.6759 50.7238 46.3113 50.7238 44.628C50.7238 42.9447 49.3592 41.5801 47.6758 41.5801C45.9925 41.5801 44.6279 42.9447 44.6279 44.628C44.6279 46.3113 45.9925 47.6759 47.6758 47.6759Z" stroke="#F0713D" stroke-width="4.775" stroke-miterlimit="10"/>
<path d="M38.5 44.627V10.9395" stroke="#F0713D" stroke-width="4.775" stroke-miterlimit="10"/>
<path d="M26.2442 26.2443C27.9275 26.2443 29.2921 24.8797 29.2921 23.1964C29.2921 21.513 27.9275 20.1484 26.2442 20.1484C24.5609 20.1484 23.1963 21.513 23.1963 23.1964C23.1963 24.8797 24.5609 26.2443 26.2442 26.2443Z" stroke="#F0713D" stroke-width="4.775" stroke-miterlimit="10"/>
<path d="M50.7559 26.2443C52.4392 26.2443 53.8038 24.8797 53.8038 23.1964C53.8038 21.513 52.4392 20.1484 50.7559 20.1484C49.0726 20.1484 47.708 21.513 47.708 23.1964C47.708 24.8797 49.0726 26.2443 50.7559 26.2443Z" stroke="#F0713D" stroke-width="4.775" stroke-miterlimit="10"/>
<path d="M23.1964 72.1876C24.8797 72.1876 26.2443 70.823 26.2443 69.1397C26.2443 67.4564 24.8797 66.0918 23.1964 66.0918C21.513 66.0918 20.1484 67.4564 20.1484 69.1397C20.1484 70.823 21.513 72.1876 23.1964 72.1876Z" stroke="#F0713D" stroke-width="4.775" stroke-miterlimit="10"/>
<path d="M53.8038 72.1876C55.4871 72.1876 56.8517 70.823 56.8517 69.1397C56.8517 67.4564 55.4871 66.0918 53.8038 66.0918C52.1205 66.0918 50.7559 67.4564 50.7559 69.1397C50.7559 70.823 52.1205 72.1876 53.8038 72.1876Z" stroke="#F0713D" stroke-width="4.775" stroke-miterlimit="10"/>
<path d="M69.1397 35.4201C70.823 35.4201 72.1876 34.0555 72.1876 32.3721C72.1876 30.6888 70.823 29.3242 69.1397 29.3242C67.4564 29.3242 66.0918 30.6888 66.0918 32.3721C66.0918 34.0555 67.4564 35.4201 69.1397 35.4201Z" stroke="#F0713D" stroke-width="4.775" stroke-miterlimit="10"/>
<path d="M7.86042 35.4201C9.54373 35.4201 10.9083 34.0555 10.9083 32.3721C10.9083 30.6888 9.54373 29.3242 7.86042 29.3242C6.1771 29.3242 4.8125 30.6888 4.8125 32.3721C4.8125 34.0555 6.1771 35.4201 7.86042 35.4201Z" stroke="#F0713D" stroke-width="4.775" stroke-miterlimit="10"/>
<path d="M29.3242 23.1953H47.6759" stroke="#F0713D" stroke-width="4.775" stroke-miterlimit="10"/>
<path d="M29.3242 47.6758L23.1963 66.0595" stroke="#F0713D" stroke-width="4.775" stroke-miterlimit="10"/>
<path d="M47.6758 47.6758L53.8037 66.0595" stroke="#F0713D" stroke-width="4.775" stroke-miterlimit="10"/>
<path d="M23.1963 23.1953L10.9404 29.3232" stroke="#F0713D" stroke-width="4.775" stroke-miterlimit="10"/>
<path d="M53.8037 23.1953L66.0595 29.3232" stroke="#F0713D" stroke-width="4.775" stroke-miterlimit="10"/>
<path d="M32.3721 44.627H44.6279" stroke="#F0713D" stroke-width="4.775" stroke-miterlimit="10"/>
</svg>
